<svg width="40" height="40" viewBox="0 0 40 40" fill="none" xmlns="http://www.w3.org/2000/svg" shape-rendering="crispEdges">
  <rect x="8" y="12" width="24" height="20" fill="#5F2E16"/>
  <rect x="10" y="14" width="20" height="16" fill="#EFBD73"/>
  <rect x="12" y="16" width="16" height="12" fill="#F4E0A2"/>
  <rect x="12" y="16" width="16" height="2" fill="#FFF2C4"/>
  <rect x="12" y="26" width="16" height="2" fill="#C87529"/>
  <rect x="12" y="18" width="2" height="8" fill="#F8D18A"/>
  <rect x="26" y="18" width="2" height="8" fill="#E5B666"/>
  <rect x="14" y="18" width="2" height="2" fill="#C87529"/>
  <rect x="16" y="20" width="2" height="2" fill="#C87529"/>
  <rect x="18" y="22" width="4" height="2" fill="#C87529"/>
  <rect x="22" y="20" width="2" height="2" fill="#C87529"/>
  <rect x="24" y="18" width="2" height="2" fill="#C87529"/>
  <rect x="14" y="24" width="2" height="2" fill="#F8D18A"/>
  <rect x="16" y="22" width="2" height="2" fill="#F8D18A"/>
  <rect x="22" y="22" width="2" height="2" fill="#F4E0A2"/>
  <rect x="24" y="24" width="2" height="2" fill="#F4E0A2"/>
  <rect x="10" y="30" width="20" height="2" fill="#8E5F40"/>
  <rect x="12" y="32" width="16" height="2" fill="#4E3623" opacity="0.35"/>
</svg>
